<?xml version="1.0" encoding="UTF-8" standalone="no"?>
<!DOCTYPE svg PUBLIC "-//W3C//DTD SVG 1.1//EN"
 "http://www.w3.org/Graphics/SVG/1.1/DTD/svg11.dtd">
<!-- Generated by graphviz version 2.47.0 (20210316.0004)
 -->
<!-- Title: dbml Pages: 1 -->
<svg width="1922pt" height="1049pt"
 viewBox="0.00 0.00 1922.19 1049.00" xmlns="http://www.w3.org/2000/svg" xmlns:xlink="http://www.w3.org/1999/xlink">
<g id="graph0" class="graph" transform="scale(1 1) rotate(0) translate(4 1045)">
<title>dbml</title>
<g id="clust1" class="cluster">
<title>cluster_Gov</title>
<polygon fill="#dddddd" stroke="#dddddd" points="8,-8 8,-1033 1906.19,-1033 1906.19,-8 8,-8"/>
<text text-anchor="middle" x="957.1" y="-1000.2" font-family="Helvetica,sans-Serif" font-size="32.00" fill="#29235c">Gov</text>
</g>
<!-- Province -->
<g id="Province" class="node">
<title>Province</title>
<ellipse fill="none" stroke="black" stroke-width="0" cx="926.69" cy="-231" rx="325.95" ry="214.92"/>
<polygon fill="#1d71b8" stroke="transparent" points="698.69,-321 698.69,-381 1155.69,-381 1155.69,-321 698.69,-321"/>
<polygon fill="none" stroke="#29235c" points="698.69,-321 698.69,-381 1155.69,-381 1155.69,-321 698.69,-321"/>
<text text-anchor="start" x="802.71" y="-342.2" font-family="Helvetica,sans-Serif" font-weight="bold" font-size="32.00" fill="#ffffff"> &#160;&#160;&#160;&#160;&#160;&#160;Province &#160;&#160;&#160;&#160;&#160;&#160;</text>
<polygon fill="#e7e2dd" stroke="transparent" points="698.69,-261 698.69,-321 1155.69,-321 1155.69,-261 698.69,-261"/>
<polygon fill="none" stroke="#29235c" points="698.69,-261 698.69,-321 1155.69,-321 1155.69,-261 698.69,-261"/>
<text text-anchor="start" x="709.69" y="-282.2" font-family="Helvetica,sans-Serif" font-weight="bold" font-size="32.00" fill="#29235c">id</text>
<text text-anchor="start" x="734.58" y="-282.2" font-family="Helvetica,sans-Serif" font-size="32.00" fill="#29235c"> &#160;&#160;&#160;</text>
<text text-anchor="start" x="1071.81" y="-282.2" font-family="Helvetica,sans-Serif" font-style="italic" font-size="32.00" fill="#29235c">int(2)</text>
<polygon fill="#e7e2dd" stroke="transparent" points="698.69,-201 698.69,-261 1155.69,-261 1155.69,-201 698.69,-201"/>
<polygon fill="none" stroke="#29235c" points="698.69,-201 698.69,-261 1155.69,-261 1155.69,-201 698.69,-201"/>
<text text-anchor="start" x="709.55" y="-221.2" font-family="Helvetica,sans-Serif" font-size="32.00" fill="#29235c">province_name &#160;&#160;&#160;</text>
<text text-anchor="start" x="963.52" y="-222.2" font-family="Helvetica,sans-Serif" font-style="italic" font-size="32.00" fill="#29235c">varchar(100)</text>
<polygon fill="#e7e2dd" stroke="transparent" points="698.69,-141 698.69,-201 1155.69,-201 1155.69,-141 698.69,-141"/>
<polygon fill="none" stroke="#29235c" points="698.69,-141 698.69,-201 1155.69,-201 1155.69,-141 698.69,-141"/>
<text text-anchor="start" x="709.69" y="-161.2" font-family="Helvetica,sans-Serif" font-size="32.00" fill="#29235c">created_at &#160;&#160;&#160;</text>
<text text-anchor="start" x="997.13" y="-162.2" font-family="Helvetica,sans-Serif" font-style="italic" font-size="32.00" fill="#29235c">timestamp</text>
<polygon fill="#e7e2dd" stroke="transparent" points="698.69,-81 698.69,-141 1155.69,-141 1155.69,-81 698.69,-81"/>
<polygon fill="none" stroke="#29235c" points="698.69,-81 698.69,-141 1155.69,-141 1155.69,-81 698.69,-81"/>
<text text-anchor="start" x="709.69" y="-101.2" font-family="Helvetica,sans-Serif" font-size="32.00" fill="#29235c">updated_at &#160;&#160;&#160;</text>
<text text-anchor="start" x="997.13" y="-102.2" font-family="Helvetica,sans-Serif" font-style="italic" font-size="32.00" fill="#29235c">timestamp</text>
<polygon fill="none" stroke="#29235c" stroke-width="2" points="697.19,-80 697.19,-382 1156.19,-382 1156.19,-80 697.19,-80"/>
</g>
<!-- City -->
<g id="City" class="node">
<title>City</title>
<ellipse fill="none" stroke="black" stroke-width="0" cx="290.36" cy="-467" rx="274.21" ry="257.27"/>
<polygon fill="#1d71b8" stroke="transparent" points="98.36,-587 98.36,-647 482.36,-647 482.36,-587 98.36,-587"/>
<polygon fill="none" stroke="#29235c" points="98.36,-587 98.36,-647 482.36,-647 482.36,-587 98.36,-587"/>
<text text-anchor="start" x="200.56" y="-608.2" font-family="Helvetica,sans-Serif" font-weight="bold" font-size="32.00" fill="#ffffff"> &#160;&#160;&#160;&#160;&#160;&#160;City &#160;&#160;&#160;&#160;&#160;&#160;</text>
<polygon fill="#e7e2dd" stroke="transparent" points="98.36,-527 98.36,-587 482.36,-587 482.36,-527 98.36,-527"/>
<polygon fill="none" stroke="#29235c" points="98.36,-527 98.36,-587 482.36,-587 482.36,-527 98.36,-527"/>
<text text-anchor="start" x="109.36" y="-548.2" font-family="Helvetica,sans-Serif" font-weight="bold" font-size="32.00" fill="#29235c">id</text>
<text text-anchor="start" x="134.25" y="-548.2" font-family="Helvetica,sans-Serif" font-size="32.00" fill="#29235c"> &#160;&#160;&#160;</text>
<text text-anchor="start" x="398.48" y="-548.2" font-family="Helvetica,sans-Serif" font-style="italic" font-size="32.00" fill="#29235c">int(4)</text>
<polygon fill="#e7e2dd" stroke="transparent" points="98.36,-467 98.36,-527 482.36,-527 482.36,-467 98.36,-467"/>
<polygon fill="none" stroke="#29235c" points="98.36,-467 98.36,-527 482.36,-527 482.36,-467 98.36,-467"/>
<text text-anchor="start" x="109.36" y="-487.2" font-family="Helvetica,sans-Serif" font-size="32.00" fill="#29235c">province_id &#160;&#160;&#160;</text>
<text text-anchor="start" x="398.48" y="-488.2" font-family="Helvetica,sans-Serif" font-style="italic" font-size="32.00" fill="#29235c">int(2)</text>
<polygon fill="#e7e2dd" stroke="transparent" points="98.36,-407 98.36,-467 482.36,-467 482.36,-407 98.36,-407"/>
<polygon fill="none" stroke="#29235c" points="98.36,-407 98.36,-467 482.36,-467 482.36,-407 98.36,-407"/>
<text text-anchor="start" x="109.17" y="-427.2" font-family="Helvetica,sans-Serif" font-size="32.00" fill="#29235c">city_name &#160;&#160;&#160;</text>
<text text-anchor="start" x="290.19" y="-428.2" font-family="Helvetica,sans-Serif" font-style="italic" font-size="32.00" fill="#29235c">varchar(100)</text>
<polygon fill="#e7e2dd" stroke="transparent" points="98.36,-347 98.36,-407 482.36,-407 482.36,-347 98.36,-347"/>
<polygon fill="none" stroke="#29235c" points="98.36,-347 98.36,-407 482.36,-407 482.36,-347 98.36,-347"/>
<text text-anchor="start" x="109.36" y="-367.2" font-family="Helvetica,sans-Serif" font-size="32.00" fill="#29235c">created_at &#160;&#160;&#160;</text>
<text text-anchor="start" x="323.8" y="-368.2" font-family="Helvetica,sans-Serif" font-style="italic" font-size="32.00" fill="#29235c">timestamp</text>
<polygon fill="#e7e2dd" stroke="transparent" points="98.36,-287 98.36,-347 482.36,-347 482.36,-287 98.36,-287"/>
<polygon fill="none" stroke="#29235c" points="98.36,-287 98.36,-347 482.36,-347 482.36,-287 98.36,-287"/>
<text text-anchor="start" x="109.36" y="-307.2" font-family="Helvetica,sans-Serif" font-size="32.00" fill="#29235c">updated_at &#160;&#160;&#160;</text>
<text text-anchor="start" x="323.8" y="-308.2" font-family="Helvetica,sans-Serif" font-style="italic" font-size="32.00" fill="#29235c">timestamp</text>
<polygon fill="none" stroke="#29235c" stroke-width="2" points="97.36,-286 97.36,-648 483.36,-648 483.36,-286 97.36,-286"/>
</g>
<!-- City&#45;&gt;Province -->
<!-- City&#45;&gt;Province -->
<g id="edge2" class="edge">
<title>City:e&#45;&gt;Province:w</title>
<path fill="none" stroke="#29235c" stroke-width="3" d="M483.36,-497C612,-497 568.07,-301.72 687.61,-291.42"/>
<polygon fill="#29235c" stroke="#29235c" stroke-width="3" points="687.85,-294.92 697.69,-291 687.55,-287.92 687.85,-294.92"/>
<text text-anchor="middle" x="706.59" y="-271.8" font-family="Helvetica,sans-Serif" font-size="32.00" fill="#29235c">1</text>
<text text-anchor="middle" x="489.58" y="-506.6" font-family="Helvetica,sans-Serif" font-size="32.00" fill="#29235c">*</text>
</g>
<!-- District -->
<g id="District" class="node">
<title>District</title>
<ellipse fill="none" stroke="black" stroke-width="0" cx="926.69" cy="-721" rx="305.44" ry="257.27"/>
<polygon fill="#1d71b8" stroke="transparent" points="712.69,-841 712.69,-901 1140.69,-901 1140.69,-841 712.69,-841"/>
<polygon fill="none" stroke="#29235c" points="712.69,-841 712.69,-901 1140.69,-901 1140.69,-841 712.69,-841"/>
<text text-anchor="start" x="815.57" y="-862.2" font-family="Helvetica,sans-Serif" font-weight="bold" font-size="32.00" fill="#ffffff"> &#160;&#160;&#160;&#160;&#160;&#160;District &#160;&#160;&#160;&#160;&#160;&#160;</text>
<polygon fill="#e7e2dd" stroke="transparent" points="712.69,-781 712.69,-841 1140.69,-841 1140.69,-781 712.69,-781"/>
<polygon fill="none" stroke="#29235c" points="712.69,-781 712.69,-841 1140.69,-841 1140.69,-781 712.69,-781"/>
<text text-anchor="start" x="723.69" y="-802.2" font-family="Helvetica,sans-Serif" font-weight="bold" font-size="32.00" fill="#29235c">id</text>
<text text-anchor="start" x="748.58" y="-802.2" font-family="Helvetica,sans-Serif" font-size="32.00" fill="#29235c"> &#160;&#160;&#160;</text>
<text text-anchor="start" x="1056.81" y="-802.2" font-family="Helvetica,sans-Serif" font-style="italic" font-size="32.00" fill="#29235c">int(6)</text>
<polygon fill="#e7e2dd" stroke="transparent" points="712.69,-721 712.69,-781 1140.69,-781 1140.69,-721 712.69,-721"/>
<polygon fill="none" stroke="#29235c" points="712.69,-721 712.69,-781 1140.69,-781 1140.69,-721 712.69,-721"/>
<text text-anchor="start" x="723.69" y="-741.2" font-family="Helvetica,sans-Serif" font-size="32.00" fill="#29235c">city_id &#160;&#160;&#160;</text>
<text text-anchor="start" x="1056.81" y="-742.2" font-family="Helvetica,sans-Serif" font-style="italic" font-size="32.00" fill="#29235c">int(4)</text>
<polygon fill="#e7e2dd" stroke="transparent" points="712.69,-661 712.69,-721 1140.69,-721 1140.69,-661 712.69,-661"/>
<polygon fill="none" stroke="#29235c" points="712.69,-661 712.69,-721 1140.69,-721 1140.69,-661 712.69,-661"/>
<text text-anchor="start" x="723.29" y="-681.2" font-family="Helvetica,sans-Serif" font-size="32.00" fill="#29235c">district_name &#160;&#160;&#160;</text>
<text text-anchor="start" x="948.52" y="-682.2" font-family="Helvetica,sans-Serif" font-style="italic" font-size="32.00" fill="#29235c">varchar(100)</text>
<polygon fill="#e7e2dd" stroke="transparent" points="712.69,-601 712.69,-661 1140.69,-661 1140.69,-601 712.69,-601"/>
<polygon fill="none" stroke="#29235c" points="712.69,-601 712.69,-661 1140.69,-661 1140.69,-601 712.69,-601"/>
<text text-anchor="start" x="723.69" y="-621.2" font-family="Helvetica,sans-Serif" font-size="32.00" fill="#29235c">created_at &#160;&#160;&#160;</text>
<text text-anchor="start" x="982.13" y="-622.2" font-family="Helvetica,sans-Serif" font-style="italic" font-size="32.00" fill="#29235c">timestamp</text>
<polygon fill="#e7e2dd" stroke="transparent" points="712.69,-541 712.69,-601 1140.69,-601 1140.69,-541 712.69,-541"/>
<polygon fill="none" stroke="#29235c" points="712.69,-541 712.69,-601 1140.69,-601 1140.69,-541 712.69,-541"/>
<text text-anchor="start" x="723.69" y="-561.2" font-family="Helvetica,sans-Serif" font-size="32.00" fill="#29235c">updated_at &#160;&#160;&#160;</text>
<text text-anchor="start" x="982.13" y="-562.2" font-family="Helvetica,sans-Serif" font-style="italic" font-size="32.00" fill="#29235c">timestamp</text>
<polygon fill="none" stroke="#29235c" stroke-width="2" points="711.69,-540 711.69,-902 1141.69,-902 1141.69,-540 711.69,-540"/>
</g>
<!-- City&#45;&gt;District -->
<!-- City&#45;&gt;District -->
<g id="edge4" class="edge">
<title>City:e&#45;&gt;District:w</title>
<path fill="none" stroke="#29235c" stroke-width="3" d="M483.36,-557C613.01,-557 580.41,-740.9 701.51,-750.6"/>
<polygon fill="#29235c" stroke="#29235c" stroke-width="3" points="701.56,-754.11 711.69,-751 701.84,-747.11 701.56,-754.11"/>
<text text-anchor="middle" x="705.47" y="-760.6" font-family="Helvetica,sans-Serif" font-size="32.00" fill="#29235c">*</text>
<text text-anchor="middle" x="492.25" y="-566.6" font-family="Helvetica,sans-Serif" font-size="32.00" fill="#29235c">1</text>
</g>
<!-- Village -->
<g id="Village" class="node">
<title>Village</title>
<ellipse fill="none" stroke="black" stroke-width="0" cx="1593.43" cy="-721" rx="304.53" ry="257.27"/>
<polygon fill="#1d71b8" stroke="transparent" points="1380.43,-841 1380.43,-901 1807.43,-901 1807.43,-841 1380.43,-841"/>
<polygon fill="none" stroke="#29235c" points="1380.43,-841 1380.43,-901 1807.43,-901 1807.43,-841 1380.43,-841"/>
<text text-anchor="start" x="1483.68" y="-862.2" font-family="Helvetica,sans-Serif" font-weight="bold" font-size="32.00" fill="#ffffff"> &#160;&#160;&#160;&#160;&#160;&#160;Village &#160;&#160;&#160;&#160;&#160;&#160;</text>
<polygon fill="#e7e2dd" stroke="transparent" points="1380.43,-781 1380.43,-841 1807.43,-841 1807.43,-781 1380.43,-781"/>
<polygon fill="none" stroke="#29235c" points="1380.43,-781 1380.43,-841 1807.43,-841 1807.43,-781 1380.43,-781"/>
<text text-anchor="start" x="1391.43" y="-802.2" font-family="Helvetica,sans-Serif" font-weight="bold" font-size="32.00" fill="#29235c">id</text>
<text text-anchor="start" x="1416.32" y="-802.2" font-family="Helvetica,sans-Serif" font-size="32.00" fill="#29235c"> &#160;&#160;&#160;</text>
<text text-anchor="start" x="1723.55" y="-802.2" font-family="Helvetica,sans-Serif" font-style="italic" font-size="32.00" fill="#29235c">int(9)</text>
<polygon fill="#e7e2dd" stroke="transparent" points="1380.43,-721 1380.43,-781 1807.43,-781 1807.43,-721 1380.43,-721"/>
<polygon fill="none" stroke="#29235c" points="1380.43,-721 1380.43,-781 1807.43,-781 1807.43,-721 1380.43,-721"/>
<text text-anchor="start" x="1391.43" y="-741.2" font-family="Helvetica,sans-Serif" font-size="32.00" fill="#29235c">district_id &#160;&#160;&#160;</text>
<text text-anchor="start" x="1723.55" y="-742.2" font-family="Helvetica,sans-Serif" font-style="italic" font-size="32.00" fill="#29235c">int(6)</text>
<polygon fill="#e7e2dd" stroke="transparent" points="1380.43,-661 1380.43,-721 1807.43,-721 1807.43,-661 1380.43,-661"/>
<polygon fill="none" stroke="#29235c" points="1380.43,-661 1380.43,-721 1807.43,-721 1807.43,-661 1380.43,-661"/>
<text text-anchor="start" x="1391.41" y="-681.2" font-family="Helvetica,sans-Serif" font-size="32.00" fill="#29235c">village_name &#160;&#160;&#160;</text>
<text text-anchor="start" x="1615.26" y="-682.2" font-family="Helvetica,sans-Serif" font-style="italic" font-size="32.00" fill="#29235c">varchar(100)</text>
<polygon fill="#e7e2dd" stroke="transparent" points="1380.43,-601 1380.43,-661 1807.43,-661 1807.43,-601 1380.43,-601"/>
<polygon fill="none" stroke="#29235c" points="1380.43,-601 1380.43,-661 1807.43,-661 1807.43,-601 1380.43,-601"/>
<text text-anchor="start" x="1391.43" y="-621.2" font-family="Helvetica,sans-Serif" font-size="32.00" fill="#29235c">created_at &#160;&#160;&#160;</text>
<text text-anchor="start" x="1648.87" y="-622.2" font-family="Helvetica,sans-Serif" font-style="italic" font-size="32.00" fill="#29235c">timestamp</text>
<polygon fill="#e7e2dd" stroke="transparent" points="1380.43,-541 1380.43,-601 1807.43,-601 1807.43,-541 1380.43,-541"/>
<polygon fill="none" stroke="#29235c" points="1380.43,-541 1380.43,-601 1807.43,-601 1807.43,-541 1380.43,-541"/>
<text text-anchor="start" x="1391.43" y="-561.2" font-family="Helvetica,sans-Serif" font-size="32.00" fill="#29235c">updated_at &#160;&#160;&#160;</text>
<text text-anchor="start" x="1648.87" y="-562.2" font-family="Helvetica,sans-Serif" font-style="italic" font-size="32.00" fill="#29235c">timestamp</text>
<polygon fill="none" stroke="#29235c" stroke-width="2" points="1378.93,-540 1378.93,-902 1807.93,-902 1807.93,-540 1378.93,-540"/>
</g>
<!-- District&#45;&gt;Village -->
<!-- District&#45;&gt;Village -->
<g id="edge6" class="edge">
<title>District:e&#45;&gt;Village:w</title>
<path fill="none" stroke="#29235c" stroke-width="3" d="M1141.69,-811C1247.15,-811 1269.09,-754.8 1369.17,-751.18"/>
<polygon fill="#29235c" stroke="#29235c" stroke-width="3" points="1369.49,-754.68 1379.43,-751 1369.37,-747.68 1369.49,-754.68"/>
<text text-anchor="middle" x="1385.65" y="-760.6" font-family="Helvetica,sans-Serif" font-size="32.00" fill="#29235c">*</text>
<text text-anchor="middle" x="1132.8" y="-820.6" font-family="Helvetica,sans-Serif" font-size="32.00" fill="#29235c">1</text>
</g>
</g>
</svg>
