<?xml version="1.0" encoding="UTF-8" standalone="no"?>
<!DOCTYPE svg PUBLIC "-//W3C//DTD SVG 1.1//EN"
 "http://www.w3.org/Graphics/SVG/1.1/DTD/svg11.dtd">
<!-- Generated by graphviz version 2.47.0 (20210316.0004)
 -->
<!-- Title: dbml Pages: 1 -->
<svg width="1891pt" height="2924pt"
 viewBox="0.00 0.00 1891.08 2923.78" xmlns="http://www.w3.org/2000/svg" xmlns:xlink="http://www.w3.org/1999/xlink">
<g id="graph0" class="graph" transform="scale(1 1) rotate(0) translate(4 2919.78)">
<title>dbml</title>
<g id="clust1" class="cluster">
<title>cluster_Auth</title>
<polygon fill="#dddddd" stroke="#dddddd" points="8,-1795.78 8,-2907.78 1875.08,-2907.78 1875.08,-1795.78 8,-1795.78"/>
<text text-anchor="middle" x="941.54" y="-2874.98" font-family="Helvetica,sans-Serif" font-size="32.00" fill="#29235c">Auth</text>
</g>
<!-- level -->
<g id="level" class="node">
<title>level</title>
<ellipse fill="none" stroke="black" stroke-width="0" cx="1594.84" cy="-1614.78" rx="152.97" ry="172.57"/>
<polygon fill="#29235c" stroke="transparent" points="1488.84,-1674.78 1488.84,-1734.78 1700.84,-1734.78 1700.84,-1674.78 1488.84,-1674.78"/>
<polygon fill="none" stroke="#29235c" points="1488.84,-1674.78 1488.84,-1734.78 1700.84,-1734.78 1700.84,-1674.78 1488.84,-1674.78"/>
<text text-anchor="start" x="1499.71" y="-1695.98" font-family="Helvetica,sans-Serif" font-weight="bold" font-size="32.00" fill="#ffffff"> &#160;&#160;&#160;&#160;&#160;&#160;level &#160;&#160;&#160;&#160;&#160;&#160;</text>
<polygon fill="#e7e2dd" stroke="transparent" points="1488.84,-1614.78 1488.84,-1674.78 1700.84,-1674.78 1700.84,-1614.78 1488.84,-1614.78"/>
<polygon fill="none" stroke="#29235c" points="1488.84,-1614.78 1488.84,-1674.78 1700.84,-1674.78 1700.84,-1614.78 1488.84,-1614.78"/>
<text text-anchor="start" x="1513.94" y="-1635.98" font-family="Helvetica,sans-Serif" font-style="italic" font-size="32.00" fill="#1d71b8"> &#160;&#160;&#160;Admin &#160;&#160;&#160;</text>
<polygon fill="#e7e2dd" stroke="transparent" points="1488.84,-1554.78 1488.84,-1614.78 1700.84,-1614.78 1700.84,-1554.78 1488.84,-1554.78"/>
<polygon fill="none" stroke="#29235c" points="1488.84,-1554.78 1488.84,-1614.78 1700.84,-1614.78 1700.84,-1554.78 1488.84,-1554.78"/>
<text text-anchor="start" x="1532.62" y="-1575.98" font-family="Helvetica,sans-Serif" font-style="italic" font-size="32.00" fill="#1d71b8"> &#160;&#160;&#160;RW &#160;&#160;&#160;</text>
<polygon fill="#e7e2dd" stroke="transparent" points="1488.84,-1494.78 1488.84,-1554.78 1700.84,-1554.78 1700.84,-1494.78 1488.84,-1494.78"/>
<polygon fill="none" stroke="#29235c" points="1488.84,-1494.78 1488.84,-1554.78 1700.84,-1554.78 1700.84,-1494.78 1488.84,-1494.78"/>
<text text-anchor="start" x="1537.95" y="-1515.98" font-family="Helvetica,sans-Serif" font-style="italic" font-size="32.00" fill="#1d71b8"> &#160;&#160;&#160;RT &#160;&#160;&#160;</text>
<polygon fill="none" stroke="#29235c" stroke-width="2" points="1487.84,-1493.78 1487.84,-1735.78 1701.84,-1735.78 1701.84,-1493.78 1487.84,-1493.78"/>
</g>
<!-- User -->
<g id="User" class="node">
<title>User</title>
<ellipse fill="none" stroke="black" stroke-width="0" cx="276.22" cy="-2188.78" rx="260.43" ry="384.83"/>
<polygon fill="#1d71b8" stroke="transparent" points="94.22,-2398.78 94.22,-2458.78 458.22,-2458.78 458.22,-2398.78 94.22,-2398.78"/>
<polygon fill="none" stroke="#29235c" points="94.22,-2398.78 94.22,-2458.78 458.22,-2458.78 458.22,-2398.78 94.22,-2398.78"/>
<text text-anchor="start" x="180.19" y="-2419.98" font-family="Helvetica,sans-Serif" font-weight="bold" font-size="32.00" fill="#ffffff"> &#160;&#160;&#160;&#160;&#160;&#160;User &#160;&#160;&#160;&#160;&#160;&#160;</text>
<polygon fill="#e7e2dd" stroke="transparent" points="94.22,-2338.78 94.22,-2398.78 458.22,-2398.78 458.22,-2338.78 94.22,-2338.78"/>
<polygon fill="none" stroke="#29235c" points="94.22,-2338.78 94.22,-2398.78 458.22,-2398.78 458.22,-2338.78 94.22,-2338.78"/>
<text text-anchor="start" x="105.22" y="-2359.98" font-family="Helvetica,sans-Serif" font-weight="bold" font-size="32.00" fill="#29235c">id</text>
<text text-anchor="start" x="130.1" y="-2359.98" font-family="Helvetica,sans-Serif" font-size="32.00" fill="#29235c"> &#160;&#160;&#160;</text>
<text text-anchor="start" x="413.43" y="-2359.98" font-family="Helvetica,sans-Serif" font-style="italic" font-size="32.00" fill="#29235c">int</text>
<polygon fill="#e7e2dd" stroke="transparent" points="94.22,-2278.78 94.22,-2338.78 458.22,-2338.78 458.22,-2278.78 94.22,-2278.78"/>
<polygon fill="none" stroke="#29235c" points="94.22,-2278.78 94.22,-2338.78 458.22,-2338.78 458.22,-2278.78 94.22,-2278.78"/>
<text text-anchor="start" x="105.22" y="-2298.98" font-family="Helvetica,sans-Serif" font-size="32.00" fill="#29235c">level_id &#160;&#160;&#160;</text>
<text text-anchor="start" x="413.43" y="-2299.98" font-family="Helvetica,sans-Serif" font-style="italic" font-size="32.00" fill="#29235c">int</text>
<polygon fill="#e7e2dd" stroke="transparent" points="94.22,-2218.78 94.22,-2278.78 458.22,-2278.78 458.22,-2218.78 94.22,-2218.78"/>
<polygon fill="none" stroke="#29235c" points="94.22,-2218.78 94.22,-2278.78 458.22,-2278.78 458.22,-2218.78 94.22,-2218.78"/>
<text text-anchor="start" x="105.22" y="-2238.98" font-family="Helvetica,sans-Serif" font-size="32.00" fill="#29235c">email &#160;&#160;&#160;</text>
<text text-anchor="start" x="283.66" y="-2239.98" font-family="Helvetica,sans-Serif" font-style="italic" font-size="32.00" fill="#29235c">varchar(50)</text>
<polygon fill="#e7e2dd" stroke="transparent" points="94.22,-2158.78 94.22,-2218.78 458.22,-2218.78 458.22,-2158.78 94.22,-2158.78"/>
<polygon fill="none" stroke="#29235c" points="94.22,-2158.78 94.22,-2218.78 458.22,-2218.78 458.22,-2158.78 94.22,-2158.78"/>
<text text-anchor="start" x="105.22" y="-2178.98" font-family="Helvetica,sans-Serif" font-size="32.00" fill="#29235c">phone_number &#160;&#160;&#160;</text>
<text text-anchor="start" x="356.55" y="-2179.98" font-family="Helvetica,sans-Serif" font-style="italic" font-size="32.00" fill="#29235c">int(13)</text>
<polygon fill="#e7e2dd" stroke="transparent" points="94.22,-2098.78 94.22,-2158.78 458.22,-2158.78 458.22,-2098.78 94.22,-2098.78"/>
<polygon fill="none" stroke="#29235c" points="94.22,-2098.78 94.22,-2158.78 458.22,-2158.78 458.22,-2098.78 94.22,-2098.78"/>
<text text-anchor="start" x="105.22" y="-2118.98" font-family="Helvetica,sans-Serif" font-size="32.00" fill="#29235c">resident_id &#160;&#160;&#160;</text>
<text text-anchor="start" x="413.43" y="-2119.98" font-family="Helvetica,sans-Serif" font-style="italic" font-size="32.00" fill="#29235c">int</text>
<polygon fill="#e7e2dd" stroke="transparent" points="94.22,-2038.78 94.22,-2098.78 458.22,-2098.78 458.22,-2038.78 94.22,-2038.78"/>
<polygon fill="none" stroke="#29235c" points="94.22,-2038.78 94.22,-2098.78 458.22,-2098.78 458.22,-2038.78 94.22,-2038.78"/>
<text text-anchor="start" x="105.22" y="-2058.98" font-family="Helvetica,sans-Serif" font-size="32.00" fill="#29235c">is_archived &#160;&#160;&#160;</text>
<text text-anchor="start" x="386.75" y="-2059.98" font-family="Helvetica,sans-Serif" font-style="italic" font-size="32.00" fill="#29235c">bool</text>
<polygon fill="#e7e2dd" stroke="transparent" points="94.22,-1978.78 94.22,-2038.78 458.22,-2038.78 458.22,-1978.78 94.22,-1978.78"/>
<polygon fill="none" stroke="#29235c" points="94.22,-1978.78 94.22,-2038.78 458.22,-2038.78 458.22,-1978.78 94.22,-1978.78"/>
<text text-anchor="start" x="105.22" y="-1998.98" font-family="Helvetica,sans-Serif" font-size="32.00" fill="#29235c">created_at &#160;&#160;&#160;</text>
<text text-anchor="start" x="299.66" y="-1999.98" font-family="Helvetica,sans-Serif" font-style="italic" font-size="32.00" fill="#29235c">timestamp</text>
<polygon fill="#e7e2dd" stroke="transparent" points="94.22,-1918.78 94.22,-1978.78 458.22,-1978.78 458.22,-1918.78 94.22,-1918.78"/>
<polygon fill="none" stroke="#29235c" points="94.22,-1918.78 94.22,-1978.78 458.22,-1978.78 458.22,-1918.78 94.22,-1918.78"/>
<text text-anchor="start" x="104.88" y="-1938.98" font-family="Helvetica,sans-Serif" font-size="32.00" fill="#29235c">updated_at &#160;&#160;&#160;</text>
<text text-anchor="start" x="299.94" y="-1939.98" font-family="Helvetica,sans-Serif" font-style="italic" font-size="32.00" fill="#29235c">timestamp</text>
<polygon fill="none" stroke="#29235c" stroke-width="2" points="93.22,-1917.78 93.22,-2459.78 459.22,-2459.78 459.22,-1917.78 93.22,-1917.78"/>
</g>
<!-- UserLevel -->
<g id="UserLevel" class="node">
<title>UserLevel</title>
<ellipse fill="none" stroke="black" stroke-width="0" cx="929.52" cy="-2062.78" rx="260.43" ry="257.27"/>
<polygon fill="#1d71b8" stroke="transparent" points="747.52,-2182.78 747.52,-2242.78 1111.52,-2242.78 1111.52,-2182.78 747.52,-2182.78"/>
<polygon fill="none" stroke="#29235c" points="747.52,-2182.78 747.52,-2242.78 1111.52,-2242.78 1111.52,-2182.78 747.52,-2182.78"/>
<text text-anchor="start" x="795.27" y="-2203.98" font-family="Helvetica,sans-Serif" font-weight="bold" font-size="32.00" fill="#ffffff"> &#160;&#160;&#160;&#160;&#160;&#160;UserLevel &#160;&#160;&#160;&#160;&#160;&#160;</text>
<polygon fill="#e7e2dd" stroke="transparent" points="747.52,-2122.78 747.52,-2182.78 1111.52,-2182.78 1111.52,-2122.78 747.52,-2122.78"/>
<polygon fill="none" stroke="#29235c" points="747.52,-2122.78 747.52,-2182.78 1111.52,-2182.78 1111.52,-2122.78 747.52,-2122.78"/>
<text text-anchor="start" x="758.52" y="-2143.98" font-family="Helvetica,sans-Serif" font-weight="bold" font-size="32.00" fill="#29235c">id</text>
<text text-anchor="start" x="783.41" y="-2143.98" font-family="Helvetica,sans-Serif" font-size="32.00" fill="#29235c"> &#160;&#160;&#160;</text>
<text text-anchor="start" x="1066.74" y="-2143.98" font-family="Helvetica,sans-Serif" font-style="italic" font-size="32.00" fill="#29235c">int</text>
<polygon fill="#e7e2dd" stroke="transparent" points="747.52,-2062.78 747.52,-2122.78 1111.52,-2122.78 1111.52,-2062.78 747.52,-2062.78"/>
<polygon fill="none" stroke="#29235c" points="747.52,-2062.78 747.52,-2122.78 1111.52,-2122.78 1111.52,-2062.78 747.52,-2062.78"/>
<text text-anchor="start" x="758.52" y="-2082.98" font-family="Helvetica,sans-Serif" font-size="32.00" fill="#29235c">level_name &#160;&#160;&#160;</text>
<text text-anchor="start" x="1034.74" y="-2083.98" font-family="Helvetica,sans-Serif" font-style="italic" font-size="32.00" fill="#29235c">level</text>
<polygon fill="#e7e2dd" stroke="transparent" points="747.52,-2002.78 747.52,-2062.78 1111.52,-2062.78 1111.52,-2002.78 747.52,-2002.78"/>
<polygon fill="none" stroke="#29235c" points="747.52,-2002.78 747.52,-2062.78 1111.52,-2062.78 1111.52,-2002.78 747.52,-2002.78"/>
<text text-anchor="start" x="758.52" y="-2022.98" font-family="Helvetica,sans-Serif" font-size="32.00" fill="#29235c">is_archived &#160;&#160;&#160;</text>
<text text-anchor="start" x="1040.05" y="-2023.98" font-family="Helvetica,sans-Serif" font-style="italic" font-size="32.00" fill="#29235c">bool</text>
<polygon fill="#e7e2dd" stroke="transparent" points="747.52,-1942.78 747.52,-2002.78 1111.52,-2002.78 1111.52,-1942.78 747.52,-1942.78"/>
<polygon fill="none" stroke="#29235c" points="747.52,-1942.78 747.52,-2002.78 1111.52,-2002.78 1111.52,-1942.78 747.52,-1942.78"/>
<text text-anchor="start" x="758.52" y="-1962.98" font-family="Helvetica,sans-Serif" font-size="32.00" fill="#29235c">created_at &#160;&#160;&#160;</text>
<text text-anchor="start" x="952.96" y="-1963.98" font-family="Helvetica,sans-Serif" font-style="italic" font-size="32.00" fill="#29235c">timestamp</text>
<polygon fill="#e7e2dd" stroke="transparent" points="747.52,-1882.78 747.52,-1942.78 1111.52,-1942.78 1111.52,-1882.78 747.52,-1882.78"/>
<polygon fill="none" stroke="#29235c" points="747.52,-1882.78 747.52,-1942.78 1111.52,-1942.78 1111.52,-1882.78 747.52,-1882.78"/>
<text text-anchor="start" x="758.19" y="-1902.98" font-family="Helvetica,sans-Serif" font-size="32.00" fill="#29235c">updated_at &#160;&#160;&#160;</text>
<text text-anchor="start" x="953.24" y="-1903.98" font-family="Helvetica,sans-Serif" font-style="italic" font-size="32.00" fill="#29235c">timestamp</text>
<polygon fill="none" stroke="#29235c" stroke-width="2" points="746.52,-1881.78 746.52,-2243.78 1112.52,-2243.78 1112.52,-1881.78 746.52,-1881.78"/>
</g>
<!-- User&#45;&gt;UserLevel -->
<!-- User&#45;&gt;UserLevel -->
<g id="edge4" class="edge">
<title>User:e&#45;&gt;UserLevel:w</title>
<path fill="none" stroke="#29235c" stroke-width="3" d="M459.22,-2308.78C600.97,-2308.78 601.29,-2160.31 736.14,-2153.06"/>
<polygon fill="#29235c" stroke="#29235c" stroke-width="3" points="736.62,-2156.55 746.52,-2152.78 736.43,-2149.55 736.62,-2156.55"/>
<text text-anchor="middle" x="737.63" y="-2162.38" font-family="Helvetica,sans-Serif" font-size="32.00" fill="#29235c">1</text>
<text text-anchor="middle" x="468.11" y="-2318.38" font-family="Helvetica,sans-Serif" font-size="32.00" fill="#29235c">1</text>
</g>
<!-- Resident -->
<g id="Resident" class="node">
<title>Resident</title>
<ellipse fill="none" stroke="black" stroke-width="0" cx="929.52" cy="-893.78" rx="357.18" ry="893.57"/>
<polygon fill="#1d71b8" stroke="transparent" points="679.52,-1463.78 679.52,-1523.78 1180.52,-1523.78 1180.52,-1463.78 679.52,-1463.78"/>
<polygon fill="none" stroke="#29235c" points="679.52,-1463.78 679.52,-1523.78 1180.52,-1523.78 1180.52,-1463.78 679.52,-1463.78"/>
<text text-anchor="start" x="804.65" y="-1484.98" font-family="Helvetica,sans-Serif" font-weight="bold" font-size="32.00" fill="#ffffff"> &#160;&#160;&#160;&#160;&#160;&#160;Resident &#160;&#160;&#160;&#160;&#160;&#160;</text>
<polygon fill="#e7e2dd" stroke="transparent" points="679.52,-1403.78 679.52,-1463.78 1180.52,-1463.78 1180.52,-1403.78 679.52,-1403.78"/>
<polygon fill="none" stroke="#29235c" points="679.52,-1403.78 679.52,-1463.78 1180.52,-1463.78 1180.52,-1403.78 679.52,-1403.78"/>
<text text-anchor="start" x="690.52" y="-1424.98" font-family="Helvetica,sans-Serif" font-weight="bold" font-size="32.00" fill="#29235c">id</text>
<text text-anchor="start" x="715.41" y="-1424.98" font-family="Helvetica,sans-Serif" font-size="32.00" fill="#29235c"> &#160;&#160;&#160;</text>
<text text-anchor="start" x="1135.74" y="-1424.98" font-family="Helvetica,sans-Serif" font-style="italic" font-size="32.00" fill="#29235c">int</text>
<polygon fill="#e7e2dd" stroke="transparent" points="679.52,-1343.78 679.52,-1403.78 1180.52,-1403.78 1180.52,-1343.78 679.52,-1343.78"/>
<polygon fill="none" stroke="#29235c" points="679.52,-1343.78 679.52,-1403.78 1180.52,-1403.78 1180.52,-1343.78 679.52,-1343.78"/>
<text text-anchor="start" x="690.52" y="-1363.98" font-family="Helvetica,sans-Serif" font-size="32.00" fill="#29235c">nik &#160;&#160;&#160;</text>
<text text-anchor="start" x="1078.85" y="-1364.98" font-family="Helvetica,sans-Serif" font-style="italic" font-size="32.00" fill="#29235c">int(16)</text>
<polygon fill="#e7e2dd" stroke="transparent" points="679.52,-1283.78 679.52,-1343.78 1180.52,-1343.78 1180.52,-1283.78 679.52,-1283.78"/>
<polygon fill="none" stroke="#29235c" points="679.52,-1283.78 679.52,-1343.78 1180.52,-1343.78 1180.52,-1283.78 679.52,-1283.78"/>
<text text-anchor="start" x="690.52" y="-1303.98" font-family="Helvetica,sans-Serif" font-size="32.00" fill="#29235c">name &#160;&#160;&#160;</text>
<text text-anchor="start" x="988.18" y="-1304.98" font-family="Helvetica,sans-Serif" font-style="italic" font-size="32.00" fill="#29235c">varchar(100)</text>
<polygon fill="#e7e2dd" stroke="transparent" points="679.52,-1223.78 679.52,-1283.78 1180.52,-1283.78 1180.52,-1223.78 679.52,-1223.78"/>
<polygon fill="none" stroke="#29235c" points="679.52,-1223.78 679.52,-1283.78 1180.52,-1283.78 1180.52,-1223.78 679.52,-1223.78"/>
<text text-anchor="start" x="690.52" y="-1243.98" font-family="Helvetica,sans-Serif" font-size="32.00" fill="#29235c">birth_place &#160;&#160;&#160;</text>
<text text-anchor="start" x="1005.96" y="-1244.98" font-family="Helvetica,sans-Serif" font-style="italic" font-size="32.00" fill="#29235c">varchar(50)</text>
<polygon fill="#e7e2dd" stroke="transparent" points="679.52,-1163.78 679.52,-1223.78 1180.52,-1223.78 1180.52,-1163.78 679.52,-1163.78"/>
<polygon fill="none" stroke="#29235c" points="679.52,-1163.78 679.52,-1223.78 1180.52,-1223.78 1180.52,-1163.78 679.52,-1163.78"/>
<text text-anchor="start" x="690.52" y="-1183.98" font-family="Helvetica,sans-Serif" font-size="32.00" fill="#29235c">birth_date &#160;&#160;&#160;</text>
<text text-anchor="start" x="1107.26" y="-1184.98" font-family="Helvetica,sans-Serif" font-style="italic" font-size="32.00" fill="#29235c">date</text>
<polygon fill="#e7e2dd" stroke="transparent" points="679.52,-1103.78 679.52,-1163.78 1180.52,-1163.78 1180.52,-1103.78 679.52,-1103.78"/>
<polygon fill="none" stroke="#29235c" points="679.52,-1103.78 679.52,-1163.78 1180.52,-1163.78 1180.52,-1103.78 679.52,-1103.78"/>
<text text-anchor="start" x="690.52" y="-1123.98" font-family="Helvetica,sans-Serif" font-size="32.00" fill="#29235c">gender &#160;&#160;&#160;</text>
<text text-anchor="start" x="1069.92" y="-1124.98" font-family="Helvetica,sans-Serif" font-style="italic" font-size="32.00" fill="#29235c">gender</text>
<polygon fill="#e7e2dd" stroke="transparent" points="679.52,-1043.78 679.52,-1103.78 1180.52,-1103.78 1180.52,-1043.78 679.52,-1043.78"/>
<polygon fill="none" stroke="#29235c" points="679.52,-1043.78 679.52,-1103.78 1180.52,-1103.78 1180.52,-1043.78 679.52,-1043.78"/>
<text text-anchor="start" x="690.52" y="-1063.98" font-family="Helvetica,sans-Serif" font-size="32.00" fill="#29235c">religion &#160;&#160;&#160;</text>
<text text-anchor="start" x="1066.41" y="-1064.98" font-family="Helvetica,sans-Serif" font-style="italic" font-size="32.00" fill="#29235c">religion</text>
<polygon fill="#e7e2dd" stroke="transparent" points="679.52,-983.78 679.52,-1043.78 1180.52,-1043.78 1180.52,-983.78 679.52,-983.78"/>
<polygon fill="none" stroke="#29235c" points="679.52,-983.78 679.52,-1043.78 1180.52,-1043.78 1180.52,-983.78 679.52,-983.78"/>
<text text-anchor="start" x="690.52" y="-1003.98" font-family="Helvetica,sans-Serif" font-size="32.00" fill="#29235c">citizenship &#160;&#160;&#160;</text>
<text text-anchor="start" x="1020.17" y="-1004.98" font-family="Helvetica,sans-Serif" font-style="italic" font-size="32.00" fill="#29235c">citizenship</text>
<polygon fill="#e7e2dd" stroke="transparent" points="679.52,-923.78 679.52,-983.78 1180.52,-983.78 1180.52,-923.78 679.52,-923.78"/>
<polygon fill="none" stroke="#29235c" points="679.52,-923.78 679.52,-983.78 1180.52,-983.78 1180.52,-923.78 679.52,-923.78"/>
<text text-anchor="start" x="690.09" y="-943.98" font-family="Helvetica,sans-Serif" font-size="32.00" fill="#29235c">education_level &#160;&#160;&#160;</text>
<text text-anchor="start" x="947.37" y="-944.98" font-family="Helvetica,sans-Serif" font-style="italic" font-size="32.00" fill="#29235c">education_level</text>
<polygon fill="#e7e2dd" stroke="transparent" points="679.52,-863.78 679.52,-923.78 1180.52,-923.78 1180.52,-863.78 679.52,-863.78"/>
<polygon fill="none" stroke="#29235c" points="679.52,-863.78 679.52,-923.78 1180.52,-923.78 1180.52,-863.78 679.52,-863.78"/>
<text text-anchor="start" x="690.52" y="-883.98" font-family="Helvetica,sans-Serif" font-size="32.00" fill="#29235c">blood_type &#160;&#160;&#160;</text>
<text text-anchor="start" x="1013" y="-884.98" font-family="Helvetica,sans-Serif" font-style="italic" font-size="32.00" fill="#29235c">blood_type</text>
<polygon fill="#e7e2dd" stroke="transparent" points="679.52,-803.78 679.52,-863.78 1180.52,-863.78 1180.52,-803.78 679.52,-803.78"/>
<polygon fill="none" stroke="#29235c" points="679.52,-803.78 679.52,-863.78 1180.52,-863.78 1180.52,-803.78 679.52,-803.78"/>
<text text-anchor="start" x="690.52" y="-823.98" font-family="Helvetica,sans-Serif" font-size="32.00" fill="#29235c">profession_name &#160;&#160;&#160;</text>
<text text-anchor="start" x="1005.96" y="-824.98" font-family="Helvetica,sans-Serif" font-style="italic" font-size="32.00" fill="#29235c">varchar(50)</text>
<polygon fill="#e7e2dd" stroke="transparent" points="679.52,-743.78 679.52,-803.78 1180.52,-803.78 1180.52,-743.78 679.52,-743.78"/>
<polygon fill="none" stroke="#29235c" points="679.52,-743.78 679.52,-803.78 1180.52,-803.78 1180.52,-743.78 679.52,-743.78"/>
<text text-anchor="start" x="690.52" y="-763.98" font-family="Helvetica,sans-Serif" font-size="32.00" fill="#29235c">goverment_employees &#160;&#160;&#160;</text>
<text text-anchor="start" x="1109.05" y="-764.98" font-family="Helvetica,sans-Serif" font-style="italic" font-size="32.00" fill="#29235c">bool</text>
<polygon fill="#e7e2dd" stroke="transparent" points="679.52,-683.78 679.52,-743.78 1180.52,-743.78 1180.52,-683.78 679.52,-683.78"/>
<polygon fill="none" stroke="#29235c" points="679.52,-683.78 679.52,-743.78 1180.52,-743.78 1180.52,-683.78 679.52,-683.78"/>
<text text-anchor="start" x="690.52" y="-703.98" font-family="Helvetica,sans-Serif" font-size="32.00" fill="#29235c">id_income_range &#160;&#160;&#160;</text>
<text text-anchor="start" x="1135.74" y="-704.98" font-family="Helvetica,sans-Serif" font-style="italic" font-size="32.00" fill="#29235c">int</text>
<polygon fill="#e7e2dd" stroke="transparent" points="679.52,-623.78 679.52,-683.78 1180.52,-683.78 1180.52,-623.78 679.52,-623.78"/>
<polygon fill="none" stroke="#29235c" points="679.52,-623.78 679.52,-683.78 1180.52,-683.78 1180.52,-623.78 679.52,-623.78"/>
<text text-anchor="start" x="690.52" y="-643.98" font-family="Helvetica,sans-Serif" font-size="32.00" fill="#29235c">id_family &#160;&#160;&#160;</text>
<text text-anchor="start" x="1135.74" y="-644.98" font-family="Helvetica,sans-Serif" font-style="italic" font-size="32.00" fill="#29235c">int</text>
<polygon fill="#e7e2dd" stroke="transparent" points="679.52,-563.78 679.52,-623.78 1180.52,-623.78 1180.52,-563.78 679.52,-563.78"/>
<polygon fill="none" stroke="#29235c" points="679.52,-563.78 679.52,-623.78 1180.52,-623.78 1180.52,-563.78 679.52,-563.78"/>
<text text-anchor="start" x="690.52" y="-583.98" font-family="Helvetica,sans-Serif" font-size="32.00" fill="#29235c">fm_status &#160;&#160;&#160;</text>
<text text-anchor="start" x="1030.82" y="-584.98" font-family="Helvetica,sans-Serif" font-style="italic" font-size="32.00" fill="#29235c">fm_status</text>
<polygon fill="#e7e2dd" stroke="transparent" points="679.52,-503.78 679.52,-563.78 1180.52,-563.78 1180.52,-503.78 679.52,-503.78"/>
<polygon fill="none" stroke="#29235c" points="679.52,-503.78 679.52,-563.78 1180.52,-563.78 1180.52,-503.78 679.52,-503.78"/>
<text text-anchor="start" x="690.52" y="-523.98" font-family="Helvetica,sans-Serif" font-size="32.00" fill="#29235c">marital_status &#160;&#160;&#160;</text>
<text text-anchor="start" x="970.39" y="-524.98" font-family="Helvetica,sans-Serif" font-style="italic" font-size="32.00" fill="#29235c">marital_status</text>
<polygon fill="#e7e2dd" stroke="transparent" points="679.52,-443.78 679.52,-503.78 1180.52,-503.78 1180.52,-443.78 679.52,-443.78"/>
<polygon fill="none" stroke="#29235c" points="679.52,-443.78 679.52,-503.78 1180.52,-503.78 1180.52,-443.78 679.52,-443.78"/>
<text text-anchor="start" x="690.52" y="-463.98" font-family="Helvetica,sans-Serif" font-size="32.00" fill="#29235c">marriage_date &#160;&#160;&#160;</text>
<text text-anchor="start" x="1107.26" y="-464.98" font-family="Helvetica,sans-Serif" font-style="italic" font-size="32.00" fill="#29235c">date</text>
<polygon fill="#e7e2dd" stroke="transparent" points="679.52,-383.78 679.52,-443.78 1180.52,-443.78 1180.52,-383.78 679.52,-383.78"/>
<polygon fill="none" stroke="#29235c" points="679.52,-383.78 679.52,-443.78 1180.52,-443.78 1180.52,-383.78 679.52,-383.78"/>
<text text-anchor="start" x="690.52" y="-403.98" font-family="Helvetica,sans-Serif" font-size="32.00" fill="#29235c">is_archived &#160;&#160;&#160;</text>
<text text-anchor="start" x="1109.05" y="-404.98" font-family="Helvetica,sans-Serif" font-style="italic" font-size="32.00" fill="#29235c">bool</text>
<polygon fill="#e7e2dd" stroke="transparent" points="679.52,-323.78 679.52,-383.78 1180.52,-383.78 1180.52,-323.78 679.52,-323.78"/>
<polygon fill="none" stroke="#29235c" points="679.52,-323.78 679.52,-383.78 1180.52,-383.78 1180.52,-323.78 679.52,-323.78"/>
<text text-anchor="start" x="690.52" y="-343.98" font-family="Helvetica,sans-Serif" font-size="32.00" fill="#29235c">created_at &#160;&#160;&#160;</text>
<text text-anchor="start" x="1021.96" y="-344.98" font-family="Helvetica,sans-Serif" font-style="italic" font-size="32.00" fill="#29235c">timestamp</text>
<polygon fill="#e7e2dd" stroke="transparent" points="679.52,-263.78 679.52,-323.78 1180.52,-323.78 1180.52,-263.78 679.52,-263.78"/>
<polygon fill="none" stroke="#29235c" points="679.52,-263.78 679.52,-323.78 1180.52,-323.78 1180.52,-263.78 679.52,-263.78"/>
<text text-anchor="start" x="690.52" y="-283.98" font-family="Helvetica,sans-Serif" font-size="32.00" fill="#29235c">updated_at &#160;&#160;&#160;</text>
<text text-anchor="start" x="1021.96" y="-284.98" font-family="Helvetica,sans-Serif" font-style="italic" font-size="32.00" fill="#29235c">timestamp</text>
<polygon fill="none" stroke="#29235c" stroke-width="2" points="678.02,-262.78 678.02,-1524.78 1181.02,-1524.78 1181.02,-262.78 678.02,-262.78"/>
</g>
<!-- User&#45;&gt;Resident -->
<!-- User&#45;&gt;Resident -->
<g id="edge2" class="edge">
<title>User:e&#45;&gt;Resident:w</title>
<path fill="none" stroke="#29235c" stroke-width="3" d="M459.22,-2128.78C617.69,-2128.78 520.94,-1463.33 668.45,-1434.73"/>
<polygon fill="#29235c" stroke="#29235c" stroke-width="3" points="668.89,-1438.21 678.52,-1433.78 668.24,-1431.24 668.89,-1438.21"/>
<text text-anchor="middle" x="669.63" y="-1404.98" font-family="Helvetica,sans-Serif" font-size="32.00" fill="#29235c">1</text>
<text text-anchor="middle" x="468.11" y="-2138.38" font-family="Helvetica,sans-Serif" font-size="32.00" fill="#29235c">1</text>
</g>
<!-- UserLevel&#45;&gt;level -->
<g id="edge9" class="edge">
<title>UserLevel:e&#45;&gt;level:w</title>
<path fill="none" stroke="#29235c" stroke-width="3" d="M1112.52,-2092.78C1275.66,-2092.78 1200.29,-1899.73 1322.61,-1791.78 1384.84,-1736.87 1404.85,-1704.78 1487.84,-1704.78"/>
</g>
<!-- LevelPermission -->
<g id="LevelPermission" class="node">
<title>LevelPermission</title>
<ellipse fill="none" stroke="black" stroke-width="0" cx="1594.84" cy="-2352.78" rx="272.47" ry="299.63"/>
<polygon fill="#1d71b8" stroke="transparent" points="1404.84,-2502.78 1404.84,-2562.78 1785.84,-2562.78 1785.84,-2502.78 1404.84,-2502.78"/>
<polygon fill="none" stroke="#29235c" points="1404.84,-2502.78 1404.84,-2562.78 1785.84,-2562.78 1785.84,-2502.78 1404.84,-2502.78"/>
<text text-anchor="start" x="1415.75" y="-2523.98" font-family="Helvetica,sans-Serif" font-weight="bold" font-size="32.00" fill="#ffffff"> &#160;&#160;&#160;&#160;&#160;&#160;LevelPermission &#160;&#160;&#160;&#160;&#160;&#160;</text>
<polygon fill="#e7e2dd" stroke="transparent" points="1404.84,-2442.78 1404.84,-2502.78 1785.84,-2502.78 1785.84,-2442.78 1404.84,-2442.78"/>
<polygon fill="none" stroke="#29235c" points="1404.84,-2442.78 1404.84,-2502.78 1785.84,-2502.78 1785.84,-2442.78 1404.84,-2442.78"/>
<text text-anchor="start" x="1415.84" y="-2463.98" font-family="Helvetica,sans-Serif" font-weight="bold" font-size="32.00" fill="#29235c">id</text>
<text text-anchor="start" x="1440.73" y="-2463.98" font-family="Helvetica,sans-Serif" font-size="32.00" fill="#29235c"> &#160;&#160;&#160;</text>
<text text-anchor="start" x="1741.06" y="-2463.98" font-family="Helvetica,sans-Serif" font-style="italic" font-size="32.00" fill="#29235c">int</text>
<polygon fill="#e7e2dd" stroke="transparent" points="1404.84,-2382.78 1404.84,-2442.78 1785.84,-2442.78 1785.84,-2382.78 1404.84,-2382.78"/>
<polygon fill="none" stroke="#29235c" points="1404.84,-2382.78 1404.84,-2442.78 1785.84,-2442.78 1785.84,-2382.78 1404.84,-2382.78"/>
<text text-anchor="start" x="1415.84" y="-2402.98" font-family="Helvetica,sans-Serif" font-size="32.00" fill="#29235c">permission_id &#160;&#160;&#160;</text>
<text text-anchor="start" x="1741.06" y="-2403.98" font-family="Helvetica,sans-Serif" font-style="italic" font-size="32.00" fill="#29235c">int</text>
<polygon fill="#e7e2dd" stroke="transparent" points="1404.84,-2322.78 1404.84,-2382.78 1785.84,-2382.78 1785.84,-2322.78 1404.84,-2322.78"/>
<polygon fill="none" stroke="#29235c" points="1404.84,-2322.78 1404.84,-2382.78 1785.84,-2382.78 1785.84,-2322.78 1404.84,-2322.78"/>
<text text-anchor="start" x="1415.84" y="-2342.98" font-family="Helvetica,sans-Serif" font-size="32.00" fill="#29235c">user_level_id &#160;&#160;&#160;</text>
<text text-anchor="start" x="1741.06" y="-2343.98" font-family="Helvetica,sans-Serif" font-style="italic" font-size="32.00" fill="#29235c">int</text>
<polygon fill="#e7e2dd" stroke="transparent" points="1404.84,-2262.78 1404.84,-2322.78 1785.84,-2322.78 1785.84,-2262.78 1404.84,-2262.78"/>
<polygon fill="none" stroke="#29235c" points="1404.84,-2262.78 1404.84,-2322.78 1785.84,-2322.78 1785.84,-2262.78 1404.84,-2262.78"/>
<text text-anchor="start" x="1415.84" y="-2282.98" font-family="Helvetica,sans-Serif" font-size="32.00" fill="#29235c">is_archived &#160;&#160;&#160;</text>
<text text-anchor="start" x="1714.38" y="-2283.98" font-family="Helvetica,sans-Serif" font-style="italic" font-size="32.00" fill="#29235c">bool</text>
<polygon fill="#e7e2dd" stroke="transparent" points="1404.84,-2202.78 1404.84,-2262.78 1785.84,-2262.78 1785.84,-2202.78 1404.84,-2202.78"/>
<polygon fill="none" stroke="#29235c" points="1404.84,-2202.78 1404.84,-2262.78 1785.84,-2262.78 1785.84,-2202.78 1404.84,-2202.78"/>
<text text-anchor="start" x="1415.84" y="-2222.98" font-family="Helvetica,sans-Serif" font-size="32.00" fill="#29235c">created_at &#160;&#160;&#160;</text>
<text text-anchor="start" x="1627.29" y="-2223.98" font-family="Helvetica,sans-Serif" font-style="italic" font-size="32.00" fill="#29235c">timestamp</text>
<polygon fill="#e7e2dd" stroke="transparent" points="1404.84,-2142.78 1404.84,-2202.78 1785.84,-2202.78 1785.84,-2142.78 1404.84,-2142.78"/>
<polygon fill="none" stroke="#29235c" points="1404.84,-2142.78 1404.84,-2202.78 1785.84,-2202.78 1785.84,-2142.78 1404.84,-2142.78"/>
<text text-anchor="start" x="1415.84" y="-2162.98" font-family="Helvetica,sans-Serif" font-size="32.00" fill="#29235c">updated_at &#160;&#160;&#160;</text>
<text text-anchor="start" x="1627.29" y="-2163.98" font-family="Helvetica,sans-Serif" font-style="italic" font-size="32.00" fill="#29235c">timestamp</text>
<polygon fill="none" stroke="#29235c" stroke-width="2" points="1403.34,-2141.78 1403.34,-2563.78 1786.34,-2563.78 1786.34,-2141.78 1403.34,-2141.78"/>
</g>
<!-- UserLevel&#45;&gt;LevelPermission -->
<!-- UserLevel&#45;&gt;LevelPermission -->
<g id="edge8" class="edge">
<title>UserLevel:e&#45;&gt;LevelPermission:w</title>
<path fill="none" stroke="#29235c" stroke-width="3" d="M1112.52,-2152.78C1266.05,-2152.78 1247.72,-2343.9 1393.53,-2352.48"/>
<polygon fill="#29235c" stroke="#29235c" stroke-width="3" points="1393.75,-2355.99 1403.84,-2352.78 1393.95,-2349 1393.75,-2355.99"/>
<text text-anchor="middle" x="1397.62" y="-2362.38" font-family="Helvetica,sans-Serif" font-size="32.00" fill="#29235c">*</text>
<text text-anchor="middle" x="1103.63" y="-2162.38" font-family="Helvetica,sans-Serif" font-size="32.00" fill="#29235c">1</text>
</g>
<!-- Permission -->
<g id="Permission" class="node">
<title>Permission</title>
<ellipse fill="none" stroke="black" stroke-width="0" cx="929.52" cy="-2595.78" rx="337.08" ry="257.27"/>
<polygon fill="#1d71b8" stroke="transparent" points="693.52,-2715.78 693.52,-2775.78 1166.52,-2775.78 1166.52,-2715.78 693.52,-2715.78"/>
<polygon fill="none" stroke="#29235c" points="693.52,-2715.78 693.52,-2775.78 1166.52,-2775.78 1166.52,-2715.78 693.52,-2715.78"/>
<text text-anchor="start" x="788.66" y="-2736.98" font-family="Helvetica,sans-Serif" font-weight="bold" font-size="32.00" fill="#ffffff"> &#160;&#160;&#160;&#160;&#160;&#160;Permission &#160;&#160;&#160;&#160;&#160;&#160;</text>
<polygon fill="#e7e2dd" stroke="transparent" points="693.52,-2655.78 693.52,-2715.78 1166.52,-2715.78 1166.52,-2655.78 693.52,-2655.78"/>
<polygon fill="none" stroke="#29235c" points="693.52,-2655.78 693.52,-2715.78 1166.52,-2715.78 1166.52,-2655.78 693.52,-2655.78"/>
<text text-anchor="start" x="704.52" y="-2676.98" font-family="Helvetica,sans-Serif" font-weight="bold" font-size="32.00" fill="#29235c">id</text>
<text text-anchor="start" x="729.41" y="-2676.98" font-family="Helvetica,sans-Serif" font-size="32.00" fill="#29235c"> &#160;&#160;&#160;</text>
<text text-anchor="start" x="1121.74" y="-2676.98" font-family="Helvetica,sans-Serif" font-style="italic" font-size="32.00" fill="#29235c">int</text>
<polygon fill="#e7e2dd" stroke="transparent" points="693.52,-2595.78 693.52,-2655.78 1166.52,-2655.78 1166.52,-2595.78 693.52,-2595.78"/>
<polygon fill="none" stroke="#29235c" points="693.52,-2595.78 693.52,-2655.78 1166.52,-2655.78 1166.52,-2595.78 693.52,-2595.78"/>
<text text-anchor="start" x="704.5" y="-2615.98" font-family="Helvetica,sans-Serif" font-size="32.00" fill="#29235c">permission_name &#160;&#160;&#160;</text>
<text text-anchor="start" x="992.24" y="-2616.98" font-family="Helvetica,sans-Serif" font-style="italic" font-size="32.00" fill="#29235c">varchar(50)</text>
<polygon fill="#e7e2dd" stroke="transparent" points="693.52,-2535.78 693.52,-2595.78 1166.52,-2595.78 1166.52,-2535.78 693.52,-2535.78"/>
<polygon fill="none" stroke="#29235c" points="693.52,-2535.78 693.52,-2595.78 1166.52,-2595.78 1166.52,-2535.78 693.52,-2535.78"/>
<text text-anchor="start" x="704.52" y="-2555.98" font-family="Helvetica,sans-Serif" font-size="32.00" fill="#29235c">is_archived &#160;&#160;&#160;</text>
<text text-anchor="start" x="1095.05" y="-2556.98" font-family="Helvetica,sans-Serif" font-style="italic" font-size="32.00" fill="#29235c">bool</text>
<polygon fill="#e7e2dd" stroke="transparent" points="693.52,-2475.78 693.52,-2535.78 1166.52,-2535.78 1166.52,-2475.78 693.52,-2475.78"/>
<polygon fill="none" stroke="#29235c" points="693.52,-2475.78 693.52,-2535.78 1166.52,-2535.78 1166.52,-2475.78 693.52,-2475.78"/>
<text text-anchor="start" x="704.52" y="-2495.98" font-family="Helvetica,sans-Serif" font-size="32.00" fill="#29235c">created_at &#160;&#160;&#160;</text>
<text text-anchor="start" x="1007.96" y="-2496.98" font-family="Helvetica,sans-Serif" font-style="italic" font-size="32.00" fill="#29235c">timestamp</text>
<polygon fill="#e7e2dd" stroke="transparent" points="693.52,-2415.78 693.52,-2475.78 1166.52,-2475.78 1166.52,-2415.78 693.52,-2415.78"/>
<polygon fill="none" stroke="#29235c" points="693.52,-2415.78 693.52,-2475.78 1166.52,-2475.78 1166.52,-2415.78 693.52,-2415.78"/>
<text text-anchor="start" x="704.52" y="-2435.98" font-family="Helvetica,sans-Serif" font-size="32.00" fill="#29235c">updated_at &#160;&#160;&#160;</text>
<text text-anchor="start" x="1007.96" y="-2436.98" font-family="Helvetica,sans-Serif" font-style="italic" font-size="32.00" fill="#29235c">timestamp</text>
<polygon fill="none" stroke="#29235c" stroke-width="2" points="692.02,-2414.78 692.02,-2776.78 1167.02,-2776.78 1167.02,-2414.78 692.02,-2414.78"/>
</g>
<!-- Permission&#45;&gt;LevelPermission -->
<!-- Permission&#45;&gt;LevelPermission -->
<g id="edge6" class="edge">
<title>Permission:e&#45;&gt;LevelPermission:w</title>
<path fill="none" stroke="#29235c" stroke-width="3" d="M1167.52,-2685.78C1324.55,-2685.78 1246.89,-2424.39 1393.84,-2413.16"/>
<polygon fill="#29235c" stroke="#29235c" stroke-width="3" points="1393.98,-2416.65 1403.84,-2412.78 1393.72,-2409.66 1393.98,-2416.65"/>
<text text-anchor="middle" x="1397.62" y="-2422.38" font-family="Helvetica,sans-Serif" font-size="32.00" fill="#29235c">*</text>
<text text-anchor="middle" x="1158.63" y="-2695.38" font-family="Helvetica,sans-Serif" font-size="32.00" fill="#29235c">1</text>
</g>
</g>
</svg>
